<svg width="201" height="125" viewBox="0 0 201 125" fill="none" xmlns="http://www.w3.org/2000/svg">
<g clip-path="url(#clip0_3465_573)">
<rect width="201" height="125" fill="white"/>
<g filter="url(#filter0_d_3465_573)">
<path d="M31.7645 16.7116L46.9053 16.876L55.624 4.49668L60.147 18.9469L74.6142 23.4136L62.269 32.1802L62.492 47.32L50.3393 38.2881L36.0095 43.178L40.8437 28.8297L31.7645 16.7116Z" fill="#F9CF3B"/>
</g>
<g filter="url(#filter1_d_3465_573)">
<path d="M149.06 70.2345C140.956 57.1814 123.068 45.8239 106.465 42.773C113.855 42.3209 124.577 45.5768 130.911 48.6025C110.265 34.7184 88.7332 30.5658 65.1989 33.4319C113.718 56.8459 131.969 86.9691 141.191 112.557L141.348 112.399C138.614 96.0074 131.675 80.4233 121.201 67.1499C130.447 73.9516 138.314 82.2125 144.372 91.4842C141.233 77.937 129.738 62.9916 117.875 54.4869C128.312 56.7835 141.139 63.9771 149.06 70.2345Z" fill="url(#paint0_linear_3465_573)"/>
</g>
<g filter="url(#filter2_d_3465_573)">
<path d="M154.287 25.3961L162.538 29.2437L170.386 24.6275L169.277 33.6641L176.092 39.7008L167.155 41.4384L163.52 49.7855L159.105 41.823L150.044 40.9448L156.252 34.2862L154.287 25.3961Z" fill="#F6DE55"/>
</g>
<g filter="url(#filter3_d_3465_573)">
<path d="M71.4086 101.527L81.2217 98.401L84.2098 88.5453L90.2152 96.9119L100.512 96.7084L94.4103 105.005L97.786 114.735L88.0099 111.496L79.7994 117.713L79.8586 107.415L71.4086 101.527Z" fill="#F6DE55"/>
</g>
<path d="M15.24 60.1047C15.24 60.7234 15.4533 61.2354 15.88 61.6407C16.3067 62.0461 16.8613 62.3981 17.544 62.6967C18.2267 62.9741 18.984 63.2514 19.816 63.5287C20.648 63.7847 21.4693 64.0834 22.28 64.4247C23.0907 64.7447 23.8373 65.1607 24.52 65.6727C25.224 66.1634 25.7787 66.7927 26.184 67.5608C26.6107 68.3287 26.824 69.2887 26.824 70.4407C26.824 72.0194 26.408 73.3207 25.576 74.3447C24.7653 75.3687 23.6773 76.1367 22.312 76.6487C20.9467 77.1394 19.432 77.3848 17.768 77.3848C16.6373 77.3848 15.4747 77.2674 14.28 77.0328C13.1067 76.8194 11.944 76.4887 10.792 76.0407L10.952 69.9607H13.608L14.28 73.8327L13.864 73.0647C14.504 73.3634 15.176 73.5981 15.88 73.7687C16.6053 73.9181 17.3093 73.9927 17.992 73.9927C18.7813 73.9927 19.5067 73.8861 20.168 73.6727C20.8293 73.4594 21.352 73.1287 21.736 72.6807C22.12 72.2327 22.312 71.6781 22.312 71.0167C22.312 70.3554 22.1093 69.8114 21.704 69.3847C21.2987 68.9581 20.744 68.6061 20.04 68.3287C19.3573 68.0301 18.6107 67.7634 17.8 67.5287C16.9893 67.2727 16.168 66.9847 15.336 66.6647C14.5253 66.3447 13.768 65.9394 13.064 65.4487C12.3813 64.9581 11.8373 64.3394 11.432 63.5927C11.0267 62.8247 10.824 61.8647 10.824 60.7127C10.824 59.1981 11.1867 57.9607 11.912 57.0007C12.6373 56.0194 13.6187 55.2834 14.856 54.7927C16.0933 54.3021 17.4907 54.0567 19.048 54.0567C20.1573 54.0567 21.3093 54.1741 22.504 54.4087C23.6987 54.6434 24.8933 54.9954 26.088 55.4647L25.736 61.0647H23.016L22.344 57.5767L22.856 58.0887C22.3227 57.8754 21.7467 57.7154 21.128 57.6087C20.5307 57.4807 19.9227 57.4167 19.304 57.4167C18.5787 57.4167 17.9067 57.5127 17.288 57.7047C16.6693 57.8754 16.168 58.1634 15.784 58.5687C15.4213 58.9527 15.24 59.4647 15.24 60.1047ZM35.1993 77.3528C33.7273 77.3528 32.6073 76.9154 31.8393 76.0407C31.0926 75.1447 30.7193 73.8221 30.7193 72.0727V62.2807L31.2953 62.8567H28.2233V60.4567L31.3593 59.7207L30.7193 60.4887V56.1367L35.2313 55.3367V60.4887L34.7513 59.8807H39.6153L39.5513 62.8567H34.7513L35.2313 62.2807V71.4647C35.2313 72.3821 35.3806 73.0434 35.6793 73.4487C35.9779 73.8541 36.4259 74.0567 37.0233 74.0567C37.3646 74.0567 37.7379 74.0034 38.1433 73.8967C38.5699 73.7687 39.0286 73.6087 39.5193 73.4167L40.3513 75.8807C38.5593 76.8621 36.8419 77.3528 35.1993 77.3528ZM55.7678 74.6967L55.1598 73.8007L57.9118 74.6647V76.9367L52.3118 77.2248L51.7038 74.1527L52.0238 74.2487C51.1704 75.2941 50.2424 76.0727 49.2398 76.5847C48.2371 77.0968 47.2024 77.3528 46.1358 77.3528C44.7704 77.3528 43.6398 76.9154 42.7438 76.0407C41.8478 75.1661 41.3997 73.9074 41.3997 72.2648C41.3997 71.0487 41.6558 70.0887 42.1678 69.3847C42.7011 68.6594 43.4691 68.1367 44.4718 67.8167C45.4744 67.4967 46.6904 67.3367 48.1198 67.3367H51.6078L51.2878 67.6887V65.5767C51.2878 64.5741 51.0424 63.8594 50.5518 63.4327C50.0824 63.0061 49.3891 62.7927 48.4718 62.7927C48.0238 62.7927 47.5438 62.8354 47.0318 62.9207C46.5198 63.0061 45.9651 63.1341 45.3678 63.3047L45.8158 62.8247L45.3998 65.4167H42.6158L42.3598 60.7447C43.8104 60.3181 45.1331 60.0087 46.3278 59.8167C47.5438 59.6034 48.6531 59.4967 49.6558 59.4967C51.6398 59.4967 53.1544 59.9234 54.1998 60.7767C55.2451 61.6301 55.7678 62.9527 55.7678 64.7447V74.6967ZM45.9118 71.8167C45.9118 72.6061 46.0931 73.1927 46.4558 73.5767C46.8398 73.9394 47.3198 74.1207 47.8958 74.1207C48.4291 74.1207 49.0158 73.9607 49.6558 73.6407C50.2958 73.2994 50.9038 72.8407 51.4798 72.2648L51.2878 73.0327V69.3847L51.6078 69.7047H48.8558C47.7464 69.7047 46.9784 69.8754 46.5518 70.2167C46.1251 70.5581 45.9118 71.0914 45.9118 71.8167ZM59.2093 76.9688V74.6647L61.8013 73.9287L61.3533 74.6007V62.3127L61.8653 63.0807L59.2093 62.2807V59.9767L64.8413 59.7207L65.4173 62.7607L64.8413 62.6327C65.8013 61.6301 66.7506 60.8621 67.6892 60.3287C68.6279 59.7741 69.6306 59.4967 70.6973 59.4967C71.3799 59.4967 72.1053 59.6034 72.8733 59.8167L72.5853 65.6407H69.9613L69.5133 62.2807L69.9293 63.1447C69.8013 63.1021 69.6626 63.0701 69.5133 63.0487C69.3853 63.0274 69.2573 63.0167 69.1293 63.0167C68.4679 63.0167 67.8066 63.2194 67.1453 63.6247C66.5053 64.0301 65.9506 64.5527 65.4813 65.1927L65.8333 63.9767V74.6007L65.3213 73.9287L68.4893 74.6647V76.9688H59.2093ZM99.6165 81.0968C98.5285 81.7581 97.5898 82.2594 96.8005 82.6008C96.0325 82.9634 95.2645 83.1448 94.4965 83.1448C93.7285 83.1448 92.8752 82.9314 91.9365 82.5048C91.0192 82.0994 89.8885 81.4381 88.5445 80.5208C87.2005 79.6248 85.5258 78.4514 83.5205 77.0008L84.5765 77.3528C82.5498 77.3314 80.7898 76.8834 79.2965 76.0087C77.8032 75.1341 76.6512 73.8647 75.8405 72.2007C75.0512 70.5154 74.6565 68.4354 74.6565 65.9607C74.6565 63.9981 74.9125 62.2807 75.4245 60.8088C75.9365 59.3154 76.6618 58.0674 77.6005 57.0647C78.5605 56.0621 79.6912 55.3154 80.9925 54.8247C82.2938 54.3127 83.7445 54.0567 85.3445 54.0567C86.9018 54.0567 88.3098 54.3021 89.5685 54.7927C90.8485 55.2834 91.9365 55.9981 92.8325 56.9367C93.7285 57.8754 94.4112 59.0487 94.8805 60.4567C95.3712 61.8434 95.6165 63.4434 95.6165 65.2567C95.6165 67.3901 95.2858 69.2674 94.6245 70.8887C93.9632 72.5101 93.0352 73.8327 91.8405 74.8568C90.6458 75.8807 89.2378 76.5847 87.6165 76.9688L87.7445 76.4247C88.9605 77.1714 89.9845 77.7688 90.8165 78.2168C91.6485 78.6861 92.3525 79.0168 92.9285 79.2088C93.5258 79.4221 94.0698 79.5288 94.5605 79.5288C95.0938 79.5288 95.6272 79.4221 96.1605 79.2088C96.6938 79.0168 97.3018 78.7181 97.9845 78.3128L99.6165 81.0968ZM79.5845 65.8327C79.5845 67.7314 79.7978 69.2674 80.2245 70.4407C80.6512 71.6141 81.2698 72.4781 82.0805 73.0327C82.8912 73.5661 83.8618 73.8327 84.9925 73.8327C86.1872 73.8327 87.2112 73.5554 88.0645 73.0007C88.9178 72.4247 89.5685 71.5181 90.0165 70.2807C90.4645 69.0434 90.6885 67.4327 90.6885 65.4487C90.6885 63.5927 90.4645 62.0887 90.0165 60.9367C89.5898 59.7634 88.9605 58.9101 88.1285 58.3767C87.3178 57.8434 86.3152 57.5767 85.1205 57.5767C83.9685 57.5767 82.9765 57.8647 82.1445 58.4407C81.3125 58.9954 80.6725 59.8807 80.2245 61.0967C79.7978 62.2914 79.5845 63.8701 79.5845 65.8327ZM104.237 77.3528C102.829 77.3528 101.645 76.8941 100.685 75.9767C99.7253 75.0381 99.2453 73.6301 99.2453 71.7527V62.4087L99.6613 63.0487L97.1013 62.2807V59.9767L103.725 59.7527V71.0167C103.725 72.0194 103.949 72.7661 104.397 73.2567C104.845 73.7261 105.443 73.9607 106.189 73.9607C106.765 73.9607 107.395 73.8114 108.077 73.5127C108.76 73.1927 109.443 72.7021 110.125 72.0407L109.837 72.8407V62.3127L110.253 63.0487L107.693 62.2807V59.9767L114.317 59.7527V74.6007L113.773 73.8327L116.429 74.6647V76.9367L110.829 77.1928L110.221 74.0567L110.829 74.2807C109.784 75.3047 108.685 76.0727 107.533 76.5847C106.381 77.0968 105.283 77.3528 104.237 77.3528ZM124.552 74.3447L124.232 73.9607L126.696 74.6647V76.9688H117.928V74.6647L120.392 73.9607L120.072 74.3447V62.6647L120.36 62.9527L117.928 62.2807V59.9767L124.552 59.7527V74.3447ZM122.184 57.2567C121.395 57.2567 120.755 57.0327 120.264 56.5847C119.795 56.1367 119.56 55.4967 119.56 54.6647C119.56 53.7687 119.805 53.1074 120.296 52.6807C120.808 52.2327 121.448 52.0087 122.216 52.0087C122.963 52.0087 123.581 52.2327 124.072 52.6807C124.563 53.1074 124.808 53.7581 124.808 54.6327C124.808 55.5074 124.552 56.1687 124.04 56.6167C123.549 57.0434 122.931 57.2567 122.184 57.2567ZM142.228 71.4647L142.26 76.9688H128.276V74.3447L137.588 62.0247L138.164 62.8887H130.388L131.604 61.9287L131.156 65.0327H128.436L128.404 59.8807H141.876V62.5047L132.5 75.1767L132.34 73.9607H139.796L138.644 75.1767L139.508 71.4647H142.228ZM158.353 71.4647L158.385 76.9688H144.401V74.3447L153.713 62.0247L154.289 62.8887H146.513L147.729 61.9287L147.281 65.0327H144.561L144.529 59.8807H158.001V62.5047L148.625 75.1767L148.465 73.9607H155.921L154.769 75.1767L155.633 71.4647H158.353ZM168.238 77.3528C166.68 77.3528 165.315 77.0327 164.141 76.3927C162.968 75.7314 162.051 74.7607 161.39 73.4807C160.75 72.1794 160.43 70.6007 160.43 68.7448C160.43 66.8247 160.771 65.1821 161.454 63.8167C162.158 62.4301 163.139 61.3634 164.398 60.6167C165.656 59.8701 167.139 59.4967 168.845 59.4967C170.51 59.4967 171.864 59.8274 172.91 60.4887C173.955 61.1501 174.723 62.0567 175.214 63.2087C175.704 64.3394 175.95 65.6194 175.95 67.0487C175.95 67.4114 175.928 67.7741 175.885 68.1367C175.864 68.4994 175.822 68.8834 175.758 69.2887H164.046V66.6327H171.918L171.342 67.0487C171.363 66.1954 171.278 65.4487 171.086 64.8087C170.915 64.1474 170.616 63.6354 170.19 63.2727C169.784 62.9101 169.219 62.7287 168.494 62.7287C167.662 62.7287 166.99 62.9741 166.478 63.4647C165.966 63.9341 165.592 64.5741 165.358 65.3847C165.144 66.1954 165.038 67.1021 165.038 68.1047C165.038 69.2354 165.176 70.2487 165.454 71.1447C165.731 72.0407 166.179 72.7447 166.798 73.2567C167.438 73.7687 168.27 74.0247 169.294 74.0247C170.019 74.0247 170.798 73.8967 171.63 73.6407C172.483 73.3634 173.368 72.9581 174.286 72.4247L175.79 74.8247C174.552 75.6781 173.283 76.3181 171.982 76.7447C170.702 77.1501 169.454 77.3528 168.238 77.3528ZM182.856 64.2007C182.856 64.6914 183.069 65.0861 183.496 65.3847C183.923 65.6834 184.467 65.9394 185.128 66.1527C185.811 66.3661 186.525 66.5901 187.272 66.8247C188.04 67.0594 188.755 67.3687 189.416 67.7527C190.099 68.1154 190.653 68.6061 191.08 69.2247C191.507 69.8434 191.72 70.6434 191.72 71.6247C191.72 72.8834 191.379 73.9394 190.696 74.7927C190.013 75.6461 189.085 76.2861 187.912 76.7127C186.739 77.1394 185.416 77.3528 183.944 77.3528C183.091 77.3528 182.184 77.2781 181.224 77.1288C180.285 76.9794 179.315 76.7767 178.312 76.5207L178.504 71.6887H181.32L181.672 74.5047L181.288 73.9607C181.715 74.0887 182.184 74.1954 182.696 74.2807C183.208 74.3447 183.656 74.3767 184.04 74.3767C184.595 74.3767 185.107 74.3021 185.576 74.1527C186.067 74.0034 186.461 73.7901 186.76 73.5127C187.08 73.2141 187.24 72.8407 187.24 72.3927C187.24 71.8807 187.027 71.4754 186.6 71.1767C186.173 70.8781 185.619 70.6221 184.936 70.4087C184.275 70.1954 183.571 69.9714 182.824 69.7367C182.099 69.5021 181.395 69.1927 180.712 68.8087C180.051 68.4247 179.507 67.9127 179.08 67.2727C178.653 66.6327 178.44 65.8007 178.44 64.7767C178.44 63.5394 178.749 62.5367 179.368 61.7687C179.987 60.9794 180.808 60.4034 181.832 60.0407C182.877 59.6781 184.019 59.4967 185.256 59.4967C186.131 59.4967 187.059 59.5821 188.04 59.7527C189.021 59.9021 190.024 60.1261 191.048 60.4247L190.888 64.7127H188.04L187.528 62.1847L188.136 62.8567C187.133 62.5794 186.248 62.4407 185.48 62.4407C184.691 62.4407 184.051 62.6007 183.56 62.9207C183.091 63.2194 182.856 63.6461 182.856 64.2007Z" fill="#121010"/>
</g>
<defs>
<filter id="filter0_d_3465_573" x="21.7646" y="-5.50391" width="62.8496" height="62.8242" filterUnits="userSpaceOnUse" color-interpolation-filters="sRGB">
<feFlood flood-opacity="0" result="BackgroundImageFix"/>
<feColorMatrix in="SourceAlpha" type="matrix" values="0 0 0 0 0 0 0 0 0 0 0 0 0 0 0 0 0 0 127 0" result="hardAlpha"/>
<feOffset/>
<feGaussianBlur stdDeviation="5"/>
<feComposite in2="hardAlpha" operator="out"/>
<feColorMatrix type="matrix" values="0 0 0 0 0.301696 0 0 0 0 0.265187 0 0 0 0 0.812826 0 0 0 0.5 0"/>
<feBlend mode="normal" in2="BackgroundImageFix" result="effect1_dropShadow_3465_573"/>
<feBlend mode="normal" in="SourceGraphic" in2="effect1_dropShadow_3465_573" result="shape"/>
</filter>
<filter id="filter1_d_3465_573" x="55.1987" y="22.5762" width="103.862" height="99.9805" filterUnits="userSpaceOnUse" color-interpolation-filters="sRGB">
<feFlood flood-opacity="0" result="BackgroundImageFix"/>
<feColorMatrix in="SourceAlpha" type="matrix" values="0 0 0 0 0 0 0 0 0 0 0 0 0 0 0 0 0 0 127 0" result="hardAlpha"/>
<feOffset/>
<feGaussianBlur stdDeviation="5"/>
<feComposite in2="hardAlpha" operator="out"/>
<feColorMatrix type="matrix" values="0 0 0 0 0.301696 0 0 0 0 0.265187 0 0 0 0 0.812826 0 0 0 0.5 0"/>
<feBlend mode="normal" in2="BackgroundImageFix" result="effect1_dropShadow_3465_573"/>
<feBlend mode="normal" in="SourceGraphic" in2="effect1_dropShadow_3465_573" result="shape"/>
</filter>
<filter id="filter2_d_3465_573" x="140.043" y="14.627" width="46.0483" height="45.1582" filterUnits="userSpaceOnUse" color-interpolation-filters="sRGB">
<feFlood flood-opacity="0" result="BackgroundImageFix"/>
<feColorMatrix in="SourceAlpha" type="matrix" values="0 0 0 0 0 0 0 0 0 0 0 0 0 0 0 0 0 0 127 0" result="hardAlpha"/>
<feOffset/>
<feGaussianBlur stdDeviation="5"/>
<feComposite in2="hardAlpha" operator="out"/>
<feColorMatrix type="matrix" values="0 0 0 0 0.301696 0 0 0 0 0.265187 0 0 0 0 0.812826 0 0 0 0.5 0"/>
<feBlend mode="normal" in2="BackgroundImageFix" result="effect1_dropShadow_3465_573"/>
<feBlend mode="normal" in="SourceGraphic" in2="effect1_dropShadow_3465_573" result="shape"/>
</filter>
<filter id="filter3_d_3465_573" x="61.4087" y="78.5449" width="49.103" height="49.168" filterUnits="userSpaceOnUse" color-interpolation-filters="sRGB">
<feFlood flood-opacity="0" result="BackgroundImageFix"/>
<feColorMatrix in="SourceAlpha" type="matrix" values="0 0 0 0 0 0 0 0 0 0 0 0 0 0 0 0 0 0 127 0" result="hardAlpha"/>
<feOffset/>
<feGaussianBlur stdDeviation="5"/>
<feComposite in2="hardAlpha" operator="out"/>
<feColorMatrix type="matrix" values="0 0 0 0 0.301696 0 0 0 0 0.265187 0 0 0 0 0.812826 0 0 0 0.5 0"/>
<feBlend mode="normal" in2="BackgroundImageFix" result="effect1_dropShadow_3465_573"/>
<feBlend mode="normal" in="SourceGraphic" in2="effect1_dropShadow_3465_573" result="shape"/>
</filter>
<linearGradient id="paint0_linear_3465_573" x1="104.582" y1="29.0269" x2="114.248" y2="115.566" gradientUnits="userSpaceOnUse">
<stop stop-color="#F6DE55"/>
<stop offset="1" stop-color="#FFAE00"/>
</linearGradient>
<clipPath id="clip0_3465_573">
<rect width="201" height="125" fill="white"/>
</clipPath>
</defs>
</svg>
