<svg width="192" height="88" viewBox="0 0 192 88" fill="none" xmlns="http://www.w3.org/2000/svg">
<g clip-path="url(#clip0_3476_20346)">
<rect width="192" height="88" fill="white"/>
<g filter="url(#filter0_d_3476_20346)">
<path d="M44.7361 12.1702L55.3146 12.2851L61.4062 3.63593L64.5663 13.732L74.6742 16.8528L66.0489 22.9777L66.2047 33.5556L57.7139 27.2452L47.702 30.6617L51.0795 20.6369L44.7361 12.1702Z" fill="#F9CF3B"/>
</g>
<g filter="url(#filter1_d_3476_20346)">
<path d="M126.688 49.5651C121.026 40.4452 108.528 32.5099 96.9277 30.3784C102.091 30.0624 109.582 32.3373 114.008 34.4513C99.583 24.7508 84.5391 21.8495 68.0962 23.8519C101.995 40.2108 114.747 61.2571 121.19 79.1346L121.3 79.0246C119.389 67.572 114.541 56.6838 107.223 47.41C113.683 52.1621 119.18 57.9338 123.413 64.4118C121.219 54.9466 113.188 44.5046 104.899 38.5626C112.192 40.1672 121.154 45.1932 126.688 49.5651Z" fill="url(#paint0_linear_3476_20346)"/>
</g>
<g filter="url(#filter2_d_3476_20346)">
<path d="M130.34 18.2373L136.105 20.9255L141.588 17.7003L140.813 24.014L145.574 28.2317L139.33 29.4456L136.791 35.2776L133.706 29.7144L127.375 29.1008L131.713 24.4486L130.34 18.2373Z" fill="#F6DE55"/>
</g>
<g filter="url(#filter3_d_3476_20346)">
<path d="M72.4343 71.4289L79.2905 69.245L81.3782 62.3591L85.5741 68.2046L92.768 68.0625L88.5051 73.8591L90.8636 80.6571L84.0332 78.3942L78.2968 82.7377L78.3382 75.5426L72.4343 71.4289Z" fill="#F6DE55"/>
</g>
<path d="M10.24 38.1047C10.24 38.7234 10.4533 39.2354 10.88 39.6407C11.3067 40.0461 11.8613 40.3981 12.544 40.6967C13.2267 40.9741 13.984 41.2514 14.816 41.5287C15.648 41.7847 16.4693 42.0834 17.28 42.4247C18.0907 42.7447 18.8373 43.1607 19.52 43.6727C20.224 44.1634 20.7787 44.7927 21.184 45.5608C21.6107 46.3287 21.824 47.2887 21.824 48.4407C21.824 50.0194 21.408 51.3207 20.576 52.3447C19.7653 53.3687 18.6773 54.1367 17.312 54.6487C15.9467 55.1394 14.432 55.3848 12.768 55.3848C11.6373 55.3848 10.4747 55.2674 9.28 55.0328C8.10667 54.8194 6.944 54.4887 5.792 54.0407L5.952 47.9607H8.608L9.28 51.8327L8.864 51.0647C9.504 51.3634 10.176 51.5981 10.88 51.7687C11.6053 51.9181 12.3093 51.9927 12.992 51.9927C13.7813 51.9927 14.5067 51.8861 15.168 51.6727C15.8293 51.4594 16.352 51.1287 16.736 50.6807C17.12 50.2327 17.312 49.6781 17.312 49.0167C17.312 48.3554 17.1093 47.8114 16.704 47.3847C16.2987 46.9581 15.744 46.6061 15.04 46.3287C14.3573 46.0301 13.6107 45.7634 12.8 45.5287C11.9893 45.2727 11.168 44.9847 10.336 44.6647C9.52533 44.3447 8.768 43.9394 8.064 43.4487C7.38133 42.9581 6.83733 42.3394 6.432 41.5927C6.02667 40.8247 5.824 39.8647 5.824 38.7127C5.824 37.1981 6.18667 35.9607 6.912 35.0007C7.63733 34.0194 8.61867 33.2834 9.856 32.7927C11.0933 32.3021 12.4907 32.0567 14.048 32.0567C15.1573 32.0567 16.3093 32.1741 17.504 32.4087C18.6987 32.6434 19.8933 32.9954 21.088 33.4647L20.736 39.0647H18.016L17.344 35.5767L17.856 36.0887C17.3227 35.8754 16.7467 35.7154 16.128 35.6087C15.5307 35.4807 14.9227 35.4167 14.304 35.4167C13.5787 35.4167 12.9067 35.5127 12.288 35.7047C11.6693 35.8754 11.168 36.1634 10.784 36.5687C10.4213 36.9527 10.24 37.4647 10.24 38.1047ZM30.1993 55.3528C28.7273 55.3528 27.6073 54.9154 26.8393 54.0407C26.0926 53.1447 25.7193 51.8221 25.7193 50.0727V40.2807L26.2953 40.8567H23.2233V38.4567L26.3593 37.7207L25.7193 38.4887V34.1367L30.2313 33.3367V38.4887L29.7513 37.8807H34.6153L34.5513 40.8567H29.7513L30.2313 40.2807V49.4647C30.2313 50.3821 30.3806 51.0434 30.6793 51.4487C30.9779 51.8541 31.4259 52.0567 32.0233 52.0567C32.3646 52.0567 32.7379 52.0034 33.1433 51.8967C33.5699 51.7687 34.0286 51.6087 34.5193 51.4167L35.3513 53.8807C33.5593 54.8621 31.8419 55.3528 30.1993 55.3528ZM50.7678 52.6967L50.1598 51.8007L52.9118 52.6647V54.9367L47.3118 55.2248L46.7038 52.1527L47.0238 52.2487C46.1704 53.2941 45.2424 54.0727 44.2398 54.5847C43.2371 55.0968 42.2024 55.3528 41.1358 55.3528C39.7704 55.3528 38.6398 54.9154 37.7438 54.0407C36.8478 53.1661 36.3997 51.9074 36.3997 50.2648C36.3997 49.0487 36.6558 48.0887 37.1678 47.3847C37.7011 46.6594 38.4691 46.1367 39.4718 45.8167C40.4744 45.4967 41.6904 45.3367 43.1198 45.3367H46.6078L46.2878 45.6887V43.5767C46.2878 42.5741 46.0424 41.8594 45.5518 41.4327C45.0824 41.0061 44.3891 40.7927 43.4718 40.7927C43.0238 40.7927 42.5438 40.8354 42.0318 40.9207C41.5198 41.0061 40.9651 41.1341 40.3678 41.3047L40.8158 40.8247L40.3998 43.4167H37.6158L37.3598 38.7447C38.8104 38.3181 40.1331 38.0087 41.3278 37.8167C42.5438 37.6034 43.6531 37.4967 44.6558 37.4967C46.6398 37.4967 48.1544 37.9234 49.1998 38.7767C50.2451 39.6301 50.7678 40.9527 50.7678 42.7447V52.6967ZM40.9118 49.8167C40.9118 50.6061 41.0931 51.1927 41.4558 51.5767C41.8398 51.9394 42.3198 52.1207 42.8958 52.1207C43.4291 52.1207 44.0158 51.9607 44.6558 51.6407C45.2958 51.2994 45.9038 50.8407 46.4798 50.2648L46.2878 51.0327V47.3847L46.6078 47.7047H43.8558C42.7464 47.7047 41.9784 47.8754 41.5518 48.2167C41.1251 48.5581 40.9118 49.0914 40.9118 49.8167ZM54.2093 54.9688V52.6647L56.8013 51.9287L56.3533 52.6007V40.3127L56.8653 41.0807L54.2093 40.2807V37.9767L59.8413 37.7207L60.4173 40.7607L59.8413 40.6327C60.8013 39.6301 61.7506 38.8621 62.6892 38.3287C63.6279 37.7741 64.6306 37.4967 65.6973 37.4967C66.3799 37.4967 67.1053 37.6034 67.8733 37.8167L67.5853 43.6407H64.9613L64.5133 40.2807L64.9293 41.1447C64.8013 41.1021 64.6626 41.0701 64.5133 41.0487C64.3853 41.0274 64.2573 41.0167 64.1293 41.0167C63.4679 41.0167 62.8066 41.2194 62.1453 41.6247C61.5053 42.0301 60.9506 42.5527 60.4813 43.1927L60.8333 41.9767V52.6007L60.3213 51.9287L63.4893 52.6647V54.9688H54.2093ZM94.6165 59.0968C93.5285 59.7581 92.5898 60.2594 91.8005 60.6008C91.0325 60.9634 90.2645 61.1448 89.4965 61.1448C88.7285 61.1448 87.8752 60.9314 86.9365 60.5048C86.0192 60.0994 84.8885 59.4381 83.5445 58.5208C82.2005 57.6248 80.5258 56.4514 78.5205 55.0008L79.5765 55.3528C77.5498 55.3314 75.7898 54.8834 74.2965 54.0087C72.8032 53.1341 71.6512 51.8647 70.8405 50.2007C70.0512 48.5154 69.6565 46.4354 69.6565 43.9607C69.6565 41.9981 69.9125 40.2807 70.4245 38.8088C70.9365 37.3154 71.6618 36.0674 72.6005 35.0647C73.5605 34.0621 74.6912 33.3154 75.9925 32.8247C77.2938 32.3127 78.7445 32.0567 80.3445 32.0567C81.9018 32.0567 83.3098 32.3021 84.5685 32.7927C85.8485 33.2834 86.9365 33.9981 87.8325 34.9367C88.7285 35.8754 89.4112 37.0487 89.8805 38.4567C90.3712 39.8434 90.6165 41.4434 90.6165 43.2567C90.6165 45.3901 90.2858 47.2674 89.6245 48.8887C88.9632 50.5101 88.0352 51.8327 86.8405 52.8568C85.6458 53.8807 84.2378 54.5847 82.6165 54.9688L82.7445 54.4247C83.9605 55.1714 84.9845 55.7688 85.8165 56.2168C86.6485 56.6861 87.3525 57.0168 87.9285 57.2088C88.5258 57.4221 89.0698 57.5288 89.5605 57.5288C90.0938 57.5288 90.6272 57.4221 91.1605 57.2088C91.6938 57.0168 92.3018 56.7181 92.9845 56.3128L94.6165 59.0968ZM74.5845 43.8327C74.5845 45.7314 74.7978 47.2674 75.2245 48.4407C75.6512 49.6141 76.2698 50.4781 77.0805 51.0327C77.8912 51.5661 78.8618 51.8327 79.9925 51.8327C81.1872 51.8327 82.2112 51.5554 83.0645 51.0007C83.9178 50.4247 84.5685 49.5181 85.0165 48.2807C85.4645 47.0434 85.6885 45.4327 85.6885 43.4487C85.6885 41.5927 85.4645 40.0887 85.0165 38.9367C84.5898 37.7634 83.9605 36.9101 83.1285 36.3767C82.3178 35.8434 81.3152 35.5767 80.1205 35.5767C78.9685 35.5767 77.9765 35.8647 77.1445 36.4407C76.3125 36.9954 75.6725 37.8807 75.2245 39.0967C74.7978 40.2914 74.5845 41.8701 74.5845 43.8327ZM99.2373 55.3528C97.8293 55.3528 96.6453 54.8941 95.6853 53.9767C94.7253 53.0381 94.2453 51.6301 94.2453 49.7527V40.4087L94.6613 41.0487L92.1013 40.2807V37.9767L98.7253 37.7527V49.0167C98.7253 50.0194 98.9493 50.7661 99.3973 51.2567C99.8453 51.7261 100.443 51.9607 101.189 51.9607C101.765 51.9607 102.395 51.8114 103.077 51.5127C103.76 51.1927 104.443 50.7021 105.125 50.0407L104.837 50.8407V40.3127L105.253 41.0487L102.693 40.2807V37.9767L109.317 37.7527V52.6007L108.773 51.8327L111.429 52.6647V54.9367L105.829 55.1928L105.221 52.0567L105.829 52.2807C104.784 53.3047 103.685 54.0727 102.533 54.5847C101.381 55.0968 100.283 55.3528 99.2373 55.3528ZM119.552 52.3447L119.232 51.9607L121.696 52.6647V54.9688H112.928V52.6647L115.392 51.9607L115.072 52.3447V40.6647L115.36 40.9527L112.928 40.2807V37.9767L119.552 37.7527V52.3447ZM117.184 35.2567C116.395 35.2567 115.755 35.0327 115.264 34.5847C114.795 34.1367 114.56 33.4967 114.56 32.6647C114.56 31.7687 114.805 31.1074 115.296 30.6807C115.808 30.2327 116.448 30.0087 117.216 30.0087C117.963 30.0087 118.581 30.2327 119.072 30.6807C119.563 31.1074 119.808 31.7581 119.808 32.6327C119.808 33.5074 119.552 34.1687 119.04 34.6167C118.549 35.0434 117.931 35.2567 117.184 35.2567ZM137.228 49.4647L137.26 54.9688H123.276V52.3447L132.588 40.0247L133.164 40.8887H125.388L126.604 39.9287L126.156 43.0327H123.436L123.404 37.8807H136.876V40.5047L127.5 53.1767L127.34 51.9607H134.796L133.644 53.1767L134.508 49.4647H137.228ZM153.353 49.4647L153.385 54.9688H139.401V52.3447L148.713 40.0247L149.289 40.8887H141.513L142.729 39.9287L142.281 43.0327H139.561L139.529 37.8807H153.001V40.5047L143.625 53.1767L143.465 51.9607H150.921L149.769 53.1767L150.633 49.4647H153.353ZM163.238 55.3528C161.68 55.3528 160.315 55.0327 159.141 54.3927C157.968 53.7314 157.051 52.7607 156.39 51.4807C155.75 50.1794 155.43 48.6007 155.43 46.7448C155.43 44.8247 155.771 43.1821 156.454 41.8167C157.158 40.4301 158.139 39.3634 159.398 38.6167C160.656 37.8701 162.139 37.4967 163.845 37.4967C165.51 37.4967 166.864 37.8274 167.91 38.4887C168.955 39.1501 169.723 40.0567 170.214 41.2087C170.704 42.3394 170.95 43.6194 170.95 45.0487C170.95 45.4114 170.928 45.7741 170.885 46.1367C170.864 46.4994 170.822 46.8834 170.758 47.2887H159.046V44.6327H166.918L166.342 45.0487C166.363 44.1954 166.278 43.4487 166.086 42.8087C165.915 42.1474 165.616 41.6354 165.19 41.2727C164.784 40.9101 164.219 40.7287 163.494 40.7287C162.662 40.7287 161.99 40.9741 161.478 41.4647C160.966 41.9341 160.592 42.5741 160.358 43.3847C160.144 44.1954 160.038 45.1021 160.038 46.1047C160.038 47.2354 160.176 48.2487 160.454 49.1447C160.731 50.0407 161.179 50.7447 161.798 51.2567C162.438 51.7687 163.27 52.0247 164.294 52.0247C165.019 52.0247 165.798 51.8967 166.63 51.6407C167.483 51.3634 168.368 50.9581 169.286 50.4247L170.79 52.8247C169.552 53.6781 168.283 54.3181 166.982 54.7447C165.702 55.1501 164.454 55.3528 163.238 55.3528ZM177.856 42.2007C177.856 42.6914 178.069 43.0861 178.496 43.3847C178.923 43.6834 179.467 43.9394 180.128 44.1527C180.811 44.3661 181.525 44.5901 182.272 44.8247C183.04 45.0594 183.755 45.3687 184.416 45.7527C185.099 46.1154 185.653 46.6061 186.08 47.2247C186.507 47.8434 186.72 48.6434 186.72 49.6247C186.72 50.8834 186.379 51.9394 185.696 52.7927C185.013 53.6461 184.085 54.2861 182.912 54.7127C181.739 55.1394 180.416 55.3528 178.944 55.3528C178.091 55.3528 177.184 55.2781 176.224 55.1288C175.285 54.9794 174.315 54.7767 173.312 54.5207L173.504 49.6887H176.32L176.672 52.5047L176.288 51.9607C176.715 52.0887 177.184 52.1954 177.696 52.2807C178.208 52.3447 178.656 52.3767 179.04 52.3767C179.595 52.3767 180.107 52.3021 180.576 52.1527C181.067 52.0034 181.461 51.7901 181.76 51.5127C182.08 51.2141 182.24 50.8407 182.24 50.3927C182.24 49.8807 182.027 49.4754 181.6 49.1767C181.173 48.8781 180.619 48.6221 179.936 48.4087C179.275 48.1954 178.571 47.9714 177.824 47.7367C177.099 47.5021 176.395 47.1927 175.712 46.8087C175.051 46.4247 174.507 45.9127 174.08 45.2727C173.653 44.6327 173.44 43.8007 173.44 42.7767C173.44 41.5394 173.749 40.5367 174.368 39.7687C174.987 38.9794 175.808 38.4034 176.832 38.0407C177.877 37.6781 179.019 37.4967 180.256 37.4967C181.131 37.4967 182.059 37.5821 183.04 37.7527C184.021 37.9021 185.024 38.1261 186.048 38.4247L185.888 42.7127H183.04L182.528 40.1847L183.136 40.8567C182.133 40.5794 181.248 40.4407 180.48 40.4407C179.691 40.4407 179.051 40.6007 178.56 40.9207C178.091 41.2194 177.856 41.6461 177.856 42.2007Z" fill="#121010"/>
</g>
<defs>
<filter id="filter0_d_3476_20346" x="34.7358" y="-6.36328" width="49.9385" height="49.918" filterUnits="userSpaceOnUse" color-interpolation-filters="sRGB">
<feFlood flood-opacity="0" result="BackgroundImageFix"/>
<feColorMatrix in="SourceAlpha" type="matrix" values="0 0 0 0 0 0 0 0 0 0 0 0 0 0 0 0 0 0 127 0" result="hardAlpha"/>
<feOffset/>
<feGaussianBlur stdDeviation="5"/>
<feComposite in2="hardAlpha" operator="out"/>
<feColorMatrix type="matrix" values="0 0 0 0 0.301696 0 0 0 0 0.265187 0 0 0 0 0.812826 0 0 0 0.5 0"/>
<feBlend mode="normal" in2="BackgroundImageFix" result="effect1_dropShadow_3476_20346"/>
<feBlend mode="normal" in="SourceGraphic" in2="effect1_dropShadow_3476_20346" result="shape"/>
</filter>
<filter id="filter1_d_3476_20346" x="58.0962" y="13.2539" width="78.5923" height="75.8809" filterUnits="userSpaceOnUse" color-interpolation-filters="sRGB">
<feFlood flood-opacity="0" result="BackgroundImageFix"/>
<feColorMatrix in="SourceAlpha" type="matrix" values="0 0 0 0 0 0 0 0 0 0 0 0 0 0 0 0 0 0 127 0" result="hardAlpha"/>
<feOffset/>
<feGaussianBlur stdDeviation="5"/>
<feComposite in2="hardAlpha" operator="out"/>
<feColorMatrix type="matrix" values="0 0 0 0 0.301696 0 0 0 0 0.265187 0 0 0 0 0.812826 0 0 0 0.5 0"/>
<feBlend mode="normal" in2="BackgroundImageFix" result="effect1_dropShadow_3476_20346"/>
<feBlend mode="normal" in="SourceGraphic" in2="effect1_dropShadow_3476_20346" result="shape"/>
</filter>
<filter id="filter2_d_3476_20346" x="117.375" y="7.70117" width="38.1992" height="37.5762" filterUnits="userSpaceOnUse" color-interpolation-filters="sRGB">
<feFlood flood-opacity="0" result="BackgroundImageFix"/>
<feColorMatrix in="SourceAlpha" type="matrix" values="0 0 0 0 0 0 0 0 0 0 0 0 0 0 0 0 0 0 127 0" result="hardAlpha"/>
<feOffset/>
<feGaussianBlur stdDeviation="5"/>
<feComposite in2="hardAlpha" operator="out"/>
<feColorMatrix type="matrix" values="0 0 0 0 0.301696 0 0 0 0 0.265187 0 0 0 0 0.812826 0 0 0 0.5 0"/>
<feBlend mode="normal" in2="BackgroundImageFix" result="effect1_dropShadow_3476_20346"/>
<feBlend mode="normal" in="SourceGraphic" in2="effect1_dropShadow_3476_20346" result="shape"/>
</filter>
<filter id="filter3_d_3476_20346" x="62.4341" y="52.3594" width="40.334" height="40.3789" filterUnits="userSpaceOnUse" color-interpolation-filters="sRGB">
<feFlood flood-opacity="0" result="BackgroundImageFix"/>
<feColorMatrix in="SourceAlpha" type="matrix" values="0 0 0 0 0 0 0 0 0 0 0 0 0 0 0 0 0 0 127 0" result="hardAlpha"/>
<feOffset/>
<feGaussianBlur stdDeviation="5"/>
<feComposite in2="hardAlpha" operator="out"/>
<feColorMatrix type="matrix" values="0 0 0 0 0.301696 0 0 0 0 0.265187 0 0 0 0 0.812826 0 0 0 0.5 0"/>
<feBlend mode="normal" in2="BackgroundImageFix" result="effect1_dropShadow_3476_20346"/>
<feBlend mode="normal" in="SourceGraphic" in2="effect1_dropShadow_3476_20346" result="shape"/>
</filter>
<linearGradient id="paint0_linear_3476_20346" x1="95.6125" y1="20.7742" x2="102.366" y2="81.2371" gradientUnits="userSpaceOnUse">
<stop stop-color="#F6DE55"/>
<stop offset="1" stop-color="#FFAE00"/>
</linearGradient>
<clipPath id="clip0_3476_20346">
<rect width="192" height="88" fill="white"/>
</clipPath>
</defs>
</svg>
